# xmcd
#
# Track frame offsets:
#	150
#	13581
#	25688
#	41237
#	52383
#	69548
#	82292
#	95389
#	117669
#	138730
#	146889
#	161128
#
# Disc length: 2298 seconds
#
# Revision: 0
# Processed by: cddbd v1.5.2PL0 Copyright (c) Steve Scherf et al.
# Submitted via: EasyCDDAExtractor 10.0.2.1
#
DISCID=bc08f80c
DTITLE=The Mens Ensemble of Hope Baptist Church - All Glory To Jesus
DYEAR=2010
DGENRE=gospel
TTITLE0=Cancelled/Worthy
TTITLE1=Down Deep In The Sea
TTITLE2=Christ To Be Praised
TTITLE3=All Glory To Jesus
TTITLE4=He Still Speaks
TTITLE5=I Am Free/My Sins Are Gone
TTITLE6=What Wondrous Love
TTITLE7=And Can It Be
TTITLE8=Almighty, Unchangeable God
TTITLE9=The Star Spangled Banner
TTITLE10=Blades Of Grass And Pure White Stones
TTITLE11=The Mansions Of The Lord
EXTD=
EXTT0=
EXTT1=
EXTT2=
EXTT3=
EXTT4=
EXTT5=
EXTT6=
EXTT7=
EXTT8=
EXTT9=
EXTT10=
EXTT11=
PLAYORDER=
